<svg id="visual" viewBox="0 0 900 600" width="900" height="600" xmlns="http://www.w3.org/2000/svg" xmlns:xlink="http://www.w3.org/1999/xlink" version="1.1"><g><g transform="translate(793 321)"><path d="M0 -34.7L30 -17.3L30 17.3L0 34.7L-30 17.3L-30 -17.3Z" fill="none" stroke="#212024" stroke-width="2"></path></g><g transform="translate(382 440)"><path d="M0 -31L26.8 -15.5L26.8 15.5L0 31L-26.8 15.5L-26.8 -15.5Z" fill="none" stroke="#212024" stroke-width="2"></path></g><g transform="translate(180 63)"><path d="M0 -33L28.6 -16.5L28.6 16.5L0 33L-28.6 16.5L-28.6 -16.5Z" fill="none" stroke="#212024" stroke-width="2"></path></g><g transform="translate(292 532)"><path d="M0 -31L26.8 -15.5L26.8 15.5L0 31L-26.8 15.5L-26.8 -15.5Z" fill="none" stroke="#212024" stroke-width="2"></path></g><g transform="translate(292 218)"><path d="M0 -33L28.6 -16.5L28.6 16.5L0 33L-28.6 16.5L-28.6 -16.5Z" fill="none" stroke="#212024" stroke-width="2"></path></g><g transform="translate(102 431)"><path d="M0 -31L26.8 -15.5L26.8 15.5L0 31L-26.8 15.5L-26.8 -15.5Z" fill="none" stroke="#212024" stroke-width="2"></path></g><g transform="translate(185 502)"><path d="M0 -31L26.8 -15.5L26.8 15.5L0 31L-26.8 15.5L-26.8 -15.5Z" fill="none" stroke="#212024" stroke-width="2"></path></g><g transform="translate(864 395)"><path d="M0 -30L26 -15L26 15L0 30L-26 15L-26 -15Z" fill="none" stroke="#212024" stroke-width="2"></path></g><g transform="translate(54 94)"><path d="M0 -30L26 -15L26 15L0 30L-26 15L-26 -15Z" fill="none" stroke="#212024" stroke-width="2"></path></g><g transform="translate(48 491)"><path d="M0 -32L27.7 -16L27.7 16L0 32L-27.7 16L-27.7 -16Z" fill="none" stroke="#212024" stroke-width="2"></path></g><g transform="translate(169 571)"><path d="M0 -31L26.8 -15.5L26.8 15.5L0 31L-26.8 15.5L-26.8 -15.5Z" fill="none" stroke="#212024" stroke-width="2"></path></g><g transform="translate(526 286)"><path d="M0 -30L26 -15L26 15L0 30L-26 15L-26 -15Z" fill="none" stroke="#212024" stroke-width="2"></path></g><g transform="translate(713 565)"><path d="M0 -31L26.8 -15.5L26.8 15.5L0 31L-26.8 15.5L-26.8 -15.5Z" fill="none" stroke="#212024" stroke-width="2"></path></g><g transform="translate(498 151)"><path d="M0 -32L27.7 -16L27.7 16L0 32L-27.7 16L-27.7 -16Z" fill="none" stroke="#212024" stroke-width="2"></path></g><g transform="translate(863 584)"><path d="M0 -32L27.7 -16L27.7 16L0 32L-27.7 16L-27.7 -16Z" fill="none" stroke="#212024" stroke-width="2"></path></g><g transform="translate(522 82)"><path d="M0 -33L28.6 -16.5L28.6 16.5L0 33L-28.6 16.5L-28.6 -16.5Z" fill="none" stroke="#212024" stroke-width="2"></path></g><g transform="translate(762 189)"><path d="M0 -30L26 -15L26 15L0 30L-26 15L-26 -15Z" fill="none" stroke="#212024" stroke-width="2"></path></g><g transform="translate(579 10)"><path d="M0 -33L28.6 -16.5L28.6 16.5L0 33L-28.6 16.5L-28.6 -16.5Z" fill="none" stroke="#212024" stroke-width="2"></path></g><g transform="translate(603 100)"><path d="M0 -30L26 -15L26 15L0 30L-26 15L-26 -15Z" fill="none" stroke="#212024" stroke-width="2"></path></g><g transform="translate(654 453)"><path d="M0 -30L26 -15L26 15L0 30L-26 15L-26 -15Z" fill="none" stroke="#212024" stroke-width="2"></path></g><g transform="translate(387 169)"><path d="M0 -31L26.8 -15.5L26.8 15.5L0 31L-26.8 15.5L-26.8 -15.5Z" fill="none" stroke="#212024" stroke-width="2"></path></g><g transform="translate(257 410)"><path d="M0 -33L28.6 -16.5L28.6 16.5L0 33L-28.6 16.5L-28.6 -16.5Z" fill="none" stroke="#212024" stroke-width="2"></path></g><g transform="translate(391 362)"><path d="M0 -32L27.7 -16L27.7 16L0 32L-27.7 16L-27.7 -16Z" fill="none" stroke="#212024" stroke-width="2"></path></g><g transform="translate(770 492)"><path d="M0 -30L26 -15L26 15L0 30L-26 15L-26 -15Z" fill="none" stroke="#212024" stroke-width="2"></path></g><g transform="translate(714 272)"><path d="M0 -30L26 -15L26 15L0 30L-26 15L-26 -15Z" fill="none" stroke="#212024" stroke-width="2"></path></g><g transform="translate(712 69)"><path d="M0 -31L26.8 -15.5L26.8 15.5L0 31L-26.8 15.5L-26.8 -15.5Z" fill="none" stroke="#212024" stroke-width="2"></path></g><g transform="translate(778 106)"><path d="M0 -30L26 -15L26 15L0 30L-26 15L-26 -15Z" fill="none" stroke="#212024" stroke-width="2"></path></g><g transform="translate(898 16)"><path d="M0 -30L26 -15L26 15L0 30L-26 15L-26 -15Z" fill="none" stroke="#212024" stroke-width="2"></path></g><g transform="translate(315 298)"><path d="M0 -33L28.6 -16.5L28.6 16.5L0 33L-28.6 16.5L-28.6 -16.5Z" fill="none" stroke="#212024" stroke-width="2"></path></g><g transform="translate(14 249)"><path d="M0 -32L27.7 -16L27.7 16L0 32L-27.7 16L-27.7 -16Z" fill="none" stroke="#212024" stroke-width="2"></path></g><g transform="translate(374 566)"><path d="M0 -31L26.8 -15.5L26.8 15.5L0 31L-26.8 15.5L-26.8 -15.5Z" fill="none" stroke="#212024" stroke-width="2"></path></g><g transform="translate(12 573)"><path d="M0 -32L27.7 -16L27.7 16L0 32L-27.7 16L-27.7 -16Z" fill="none" stroke="#212024" stroke-width="2"></path></g><g transform="translate(648 327)"><path d="M0 -31L26.8 -15.5L26.8 15.5L0 31L-26.8 15.5L-26.8 -15.5Z" fill="none" stroke="#212024" stroke-width="2"></path></g><g transform="translate(218 169)"><path d="M0 -31L26.8 -15.5L26.8 15.5L0 31L-26.8 15.5L-26.8 -15.5Z" fill="none" stroke="#212024" stroke-width="2"></path></g><g transform="translate(104 243)"><path d="M0 -33L28.6 -16.5L28.6 16.5L0 33L-28.6 16.5L-28.6 -16.5Z" fill="none" stroke="#212024" stroke-width="2"></path></g><g transform="translate(830 241)"><path d="M0 -30L26 -15L26 15L0 30L-26 15L-26 -15Z" fill="none" stroke="#212024" stroke-width="2"></path></g><g transform="translate(889 498)"><path d="M0 -31L26.8 -15.5L26.8 15.5L0 31L-26.8 15.5L-26.8 -15.5Z" fill="none" stroke="#212024" stroke-width="2"></path></g><g transform="translate(432 244)"><path d="M0 -31L26.8 -15.5L26.8 15.5L0 31L-26.8 15.5L-26.8 -15.5Z" fill="none" stroke="#212024" stroke-width="2"></path></g><g transform="translate(523 431)"><path d="M0 -30L26 -15L26 15L0 30L-26 15L-26 -15Z" fill="none" stroke="#212024" stroke-width="2"></path></g><g transform="translate(649 170)"><path d="M0 -30L26 -15L26 15L0 30L-26 15L-26 -15Z" fill="none" stroke="#212024" stroke-width="2"></path></g><g transform="translate(460 550)"><path d="M0 -31L26.8 -15.5L26.8 15.5L0 31L-26.8 15.5L-26.8 -15.5Z" fill="none" stroke="#212024" stroke-width="2"></path></g><g transform="translate(91 11)"><path d="M0 -33L28.6 -16.5L28.6 16.5L0 33L-28.6 16.5L-28.6 -16.5Z" fill="none" stroke="#212024" stroke-width="2"></path></g><g transform="translate(184 248)"><path d="M0 -32L27.7 -16L27.7 16L0 32L-27.7 16L-27.7 -16Z" fill="none" stroke="#212024" stroke-width="2"></path></g><g transform="translate(799 555)"><path d="M0 -33L28.6 -16.5L28.6 16.5L0 33L-28.6 16.5L-28.6 -16.5Z" fill="none" stroke="#212024" stroke-width="2"></path></g><g transform="translate(760 420)"><path d="M0 -30L26 -15L26 15L0 30L-26 15L-26 -15Z" fill="none" stroke="#212024" stroke-width="2"></path></g><g transform="translate(312 88)"><path d="M0 -31L26.8 -15.5L26.8 15.5L0 31L-26.8 15.5L-26.8 -15.5Z" fill="none" stroke="#212024" stroke-width="2"></path></g><g transform="translate(790 22)"><path d="M0 -30L26 -15L26 15L0 30L-26 15L-26 -15Z" fill="none" stroke="#212024" stroke-width="2"></path></g><g transform="translate(567 542)"><path d="M0 -32L27.7 -16L27.7 16L0 32L-27.7 16L-27.7 -16Z" fill="none" stroke="#212024" stroke-width="2"></path></g><g transform="translate(381 3)"><path d="M0 -31L26.8 -15.5L26.8 15.5L0 31L-26.8 15.5L-26.8 -15.5Z" fill="none" stroke="#212024" stroke-width="2"></path></g><g transform="translate(18 403)"><path d="M0 -30L26 -15L26 15L0 30L-26 15L-26 -15Z" fill="none" stroke="#212024" stroke-width="2"></path></g><g transform="translate(179 325)"><path d="M0 -32L27.7 -16L27.7 16L0 32L-27.7 16L-27.7 -16Z" fill="none" stroke="#212024" stroke-width="2"></path></g><g transform="translate(886 134)"><path d="M0 -30L26 -15L26 15L0 30L-26 15L-26 -15Z" fill="none" stroke="#212024" stroke-width="2"></path></g><g transform="translate(842 69)"><path d="M0 -32L27.7 -16L27.7 16L0 32L-27.7 16L-27.7 -16Z" fill="none" stroke="#212024" stroke-width="2"></path></g><g transform="translate(66 183)"><path d="M0 -33L28.6 -16.5L28.6 16.5L0 33L-28.6 16.5L-28.6 -16.5Z" fill="none" stroke="#212024" stroke-width="2"></path></g><g transform="translate(582 222)"><path d="M0 -30L26 -15L26 15L0 30L-26 15L-26 -15Z" fill="none" stroke="#212024" stroke-width="2"></path></g><g transform="translate(124 111)"><path d="M0 -33L28.6 -16.5L28.6 16.5L0 33L-28.6 16.5L-28.6 -16.5Z" fill="none" stroke="#212024" stroke-width="2"></path></g><g transform="translate(387 99)"><path d="M0 -30L26 -15L26 15L0 30L-26 15L-26 -15Z" fill="none" stroke="#212024" stroke-width="2"></path></g><g transform="translate(650 2)"><path d="M0 -30L26 -15L26 15L0 30L-26 15L-26 -15Z" fill="none" stroke="#212024" stroke-width="2"></path></g><g transform="translate(255 4)"><path d="M0 -30L26 -15L26 15L0 30L-26 15L-26 -15Z" fill="none" stroke="#212024" stroke-width="2"></path></g><g transform="translate(453 443)"><path d="M0 -31L26.8 -15.5L26.8 15.5L0 31L-26.8 15.5L-26.8 -15.5Z" fill="none" stroke="#212024" stroke-width="2"></path></g><g transform="translate(876 316)"><path d="M0 -33L28.6 -16.5L28.6 16.5L0 33L-28.6 16.5L-28.6 -16.5Z" fill="none" stroke="#212024" stroke-width="2"></path></g><g transform="translate(79 330)"><path d="M0 -30L26 -15L26 15L0 30L-26 15L-26 -15Z" fill="none" stroke="#212024" stroke-width="2"></path></g><g transform="translate(183 413)"><path d="M0 -30L26 -15L26 15L0 30L-26 15L-26 -15Z" fill="none" stroke="#212024" stroke-width="2"></path></g><g transform="translate(582 383)"><path d="M0 -33L28.6 -16.5L28.6 16.5L0 33L-28.6 16.5L-28.6 -16.5Z" fill="none" stroke="#212024" stroke-width="2"></path></g><g transform="translate(480 376)"><path d="M0 -32L27.7 -16L27.7 16L0 32L-27.7 16L-27.7 -16Z" fill="none" stroke="#212024" stroke-width="2"></path></g><g transform="translate(82 555)"><path d="M0 -30L26 -15L26 15L0 30L-26 15L-26 -15Z" fill="none" stroke="#212024" stroke-width="2"></path></g><g transform="translate(453 76)"><path d="M0 -30L26 -15L26 15L0 30L-26 15L-26 -15Z" fill="none" stroke="#212024" stroke-width="2"></path></g><g transform="translate(500 10)"><path d="M0 -33L28.6 -16.5L28.6 16.5L0 33L-28.6 16.5L-28.6 -16.5Z" fill="none" stroke="#212024" stroke-width="2"></path></g><g transform="translate(642 586)"><path d="M0 -30L26 -15L26 15L0 30L-26 15L-26 -15Z" fill="none" stroke="#212024" stroke-width="2"></path></g><g transform="translate(8 2)"><path d="M0 -31L26.8 -15.5L26.8 15.5L0 31L-26.8 15.5L-26.8 -15.5Z" fill="none" stroke="#212024" stroke-width="2"></path></g><g transform="translate(694 380)"><path d="M0 -30L26 -15L26 15L0 30L-26 15L-26 -15Z" fill="none" stroke="#212024" stroke-width="2"></path></g><g transform="translate(324 389)"><path d="M0 -30L26 -15L26 15L0 30L-26 15L-26 -15Z" fill="none" stroke="#212024" stroke-width="2"></path></g><g transform="translate(238 582)"><path d="M0 -30L26 -15L26 15L0 30L-26 15L-26 -15Z" fill="none" stroke="#212024" stroke-width="2"></path></g><g transform="translate(899 221)"><path d="M0 -30L26 -15L26 15L0 30L-26 15L-26 -15Z" fill="none" stroke="#212024" stroke-width="2"></path></g><g transform="translate(511 500)"><path d="M0 -31L26.8 -15.5L26.8 15.5L0 31L-26.8 15.5L-26.8 -15.5Z" fill="none" stroke="#212024" stroke-width="2"></path></g></g></svg>