<?xml version="1.0" standalone="no"?>
<!DOCTYPE svg PUBLIC "-//W3C//DTD SVG 20010904//EN"
 "http://www.w3.org/TR/2001/REC-SVG-20010904/DTD/svg10.dtd">
<svg version="1.0" xmlns="http://www.w3.org/2000/svg"
 width="500.000000pt" height="500.000000pt" viewBox="0 0 500.000000 500.000000"
 preserveAspectRatio="xMidYMid meet">

<g transform="translate(0.000000,500.000000) scale(0.100000,-0.100000)"
fill="#000000" stroke="none">
<path d="M1340 4458 c0 -167 45 -501 80 -593 5 -14 30 -51 55 -81 24 -30 42
-60 39 -67 -3 -7 -35 -33 -72 -59 -287 -203 -337 -240 -340 -247 -1 -4 62 -20
140 -35 203 -40 269 -57 265 -69 -2 -6 -48 -34 -103 -63 -54 -28 -184 -95
-289 -149 -104 -54 -194 -102 -199 -106 -6 -5 172 -9 395 -9 381 0 407 -1 422
-18 37 -40 29 -42 -285 -44 l-303 -3 235 -119 c129 -65 236 -119 238 -121 3
-3 -213 -400 -228 -420 -18 -24 -51 -88 -47 -92 5 -5 196 170 408 373 153 147
191 176 213 168 9 -3 16 -9 16 -13 0 -4 -26 -32 -57 -62 -224 -211 -441 -419
-438 -419 2 0 28 9 57 21 101 40 399 132 469 144 l35 7 38 -119 c21 -65 42
-129 46 -143 46 -150 75 -237 83 -248 8 -9 73 -12 290 -10 l281 3 16 45 c10
25 26 74 38 110 11 36 41 132 67 213 l48 149 45 -7 c45 -7 380 -112 450 -140
34 -15 59 -12 35 3 -7 4 -90 82 -185 174 -95 91 -193 183 -218 203 -45 37 -68
70 -57 81 13 14 54 -8 102 -53 28 -27 77 -73 110 -103 33 -29 136 -128 229
-218 92 -90 170 -161 173 -158 6 6 -40 98 -132 261 -34 61 -73 131 -87 156
-14 25 -32 55 -39 67 -7 12 -11 23 -9 25 3 2 111 58 240 123 l235 119 -302 3
c-167 1 -303 6 -303 10 0 4 7 18 16 30 l15 22 395 0 c217 0 394 4 394 8 0 5
-51 35 -112 67 -277 142 -450 235 -462 246 -5 5 -7 11 -4 14 8 8 379 85 411
85 17 0 4 17 -31 41 -58 40 -281 199 -340 241 l-53 39 26 32 c14 18 37 46 51
63 33 42 52 121 84 343 12 86 26 391 17 391 -3 0 -12 -6 -19 -12 -7 -7 -33
-31 -58 -52 -25 -21 -68 -60 -95 -85 -82 -75 -146 -133 -215 -192 -408 -355
-435 -377 -395 -328 24 29 191 215 223 247 12 13 22 25 22 27 0 3 -274 5 -610
5 -482 0 -610 -3 -610 -12 1 -7 55 -69 121 -138 65 -69 115 -126 109 -128 -10
-4 -95 63 -180 142 -25 22 -99 88 -165 146 -66 58 -189 167 -272 242 -84 76
-155 138 -158 138 -3 0 -5 -41 -5 -92z m387 -415 c68 -67 123 -128 123 -135 0
-7 -10 -29 -22 -48 -11 -19 -29 -50 -39 -67 -11 -18 -29 -50 -41 -70 -49 -86
-57 -107 -45 -120 7 -7 55 -28 107 -49 52 -20 113 -44 136 -54 22 -11 65 -29
95 -40 30 -12 70 -28 89 -37 19 -8 44 -19 55 -24 11 -4 51 -22 89 -39 38 -16
70 -30 71 -30 4 0 52 164 69 235 8 32 -4 -133 -15 -220 -13 -90 -73 -399 -95
-488 -26 -100 -32 -97 184 -97 103 0 193 4 201 9 13 8 12 19 -2 78 -26 111
-75 361 -91 463 -21 135 -30 279 -17 260 6 -8 11 -25 11 -37 0 -29 40 -185 51
-197 4 -5 36 5 73 23 35 17 67 31 70 31 3 0 29 11 58 24 29 13 121 51 203 84
221 89 268 112 256 126 -5 6 -23 36 -39 66 -44 84 -72 132 -95 164 -11 16 -20
41 -20 56 0 27 8 36 325 339 l78 74 0 -36 c0 -34 -11 -48 -175 -208 l-175
-172 26 -46 c104 -183 145 -262 142 -273 -3 -7 -56 -36 -118 -64 l-114 -50
-21 -71 c-28 -92 -55 -134 -107 -168 -65 -43 -131 -39 -240 14 -46 23 -86 41
-90 41 -19 0 -13 -65 22 -239 48 -241 70 -342 75 -352 6 -8 -116 -122 -213
-199 -40 -32 -43 -37 -40 -79 l3 -45 60 -12 c33 -7 68 -13 77 -13 10 -1 48 26
86 58 l68 59 22 93 c12 52 26 119 31 149 22 117 42 206 49 217 4 7 59 39 122
71 63 33 144 76 180 96 36 20 80 44 98 53 24 13 32 23 32 44 0 15 5 31 12 35
7 4 8 3 4 -4 -4 -7 -2 -20 4 -29 11 -17 11 -17 6 0 -3 11 -2 15 4 12 6 -3 10
-19 10 -35 0 -33 -13 -44 -145 -117 -239 -133 -277 -157 -285 -178 -5 -12 -25
-102 -45 -201 -20 -98 -52 -240 -72 -314 -19 -74 -47 -184 -62 -245 l-28 -110
-255 -3 -256 -2 -4 27 c-3 16 -33 134 -67 264 -33 130 -65 259 -71 285 -18 96
-51 250 -61 286 -8 33 -18 41 -87 76 -42 21 -106 56 -142 78 -36 21 -87 50
-113 64 -27 14 -62 36 -79 50 -30 26 -31 26 -14 58 19 36 31 42 23 12 -3 -11
-1 -17 4 -14 5 3 12 -1 15 -10 6 -15 155 -101 332 -191 104 -53 105 -54 128
-175 23 -121 44 -219 66 -308 9 -36 22 -52 81 -98 51 -40 76 -54 91 -50 12 3
45 9 74 12 28 4 52 12 53 18 4 48 -5 92 -21 103 -11 8 -25 19 -32 26 -7 6 -33
28 -58 48 -25 20 -56 47 -70 59 -14 12 -36 31 -49 41 -29 23 -29 19 38 348 63
309 65 302 -60 241 -66 -32 -96 -41 -139 -42 -118 -2 -170 58 -225 257 -1 6
-47 30 -101 54 -143 64 -140 60 -99 140 18 36 56 106 84 156 l51 90 -175 175
c-158 159 -175 180 -175 210 l0 35 82 -80 c46 -44 138 -135 205 -202z"/>
<path d="M1924 3419 c34 -120 70 -159 147 -159 49 0 159 40 159 58 0 7 -244
107 -292 120 -17 4 -19 2 -14 -19z"/>
<path d="M2903 3383 c-79 -32 -143 -61 -143 -65 0 -17 113 -60 157 -60 57 0
87 21 118 82 24 47 33 100 18 100 -5 -1 -72 -26 -150 -57z"/>
<path d="M2300 2697 c0 -16 53 -67 137 -131 68 -51 67 -51 85 -33 7 6 38 32
68 57 93 76 110 93 110 107 0 10 -40 13 -200 13 -160 0 -200 -3 -200 -13z"/>
<path d="M2723 2317 l-70 -74 -11 32 c-11 29 -17 32 -86 44 -63 11 -84 11
-133 0 -50 -12 -59 -18 -67 -44 -6 -16 -11 -32 -12 -34 -2 -2 -18 14 -36 35
-42 48 -101 105 -105 100 -2 -1 1 -16 6 -32 5 -16 14 -47 20 -69 52 -191 66
-225 96 -225 2 0 16 11 30 25 l25 26 12 -26 c11 -24 14 -25 101 -25 71 0 94 4
109 17 18 16 21 16 49 -1 16 -10 36 -15 43 -13 12 5 32 61 57 160 14 59 31
120 40 150 4 15 7 27 5 27 -2 0 -35 -33 -73 -73z"/>
<path d="M1860 1455 l0 -265 50 0 50 0 0 265 0 265 -50 0 -50 0 0 -265z"/>
<path d="M2275 1673 c-9 -26 -35 -93 -55 -148 -72 -189 -120 -320 -120 -328 0
-4 22 -7 49 -7 l49 0 24 60 23 61 110 -3 109 -3 21 -55 21 -55 52 -3 c29 -2
52 -2 52 0 0 2 -34 93 -76 203 -42 110 -86 227 -98 260 l-22 60 -60 3 -61 3
-18 -48z m95 -97 c0 -7 11 -39 24 -72 45 -112 48 -104 -38 -104 -42 0 -76 3
-76 8 0 22 73 191 81 186 5 -3 9 -11 9 -18z"/>
<path d="M2740 1455 l0 -265 45 0 45 0 0 182 0 183 36 -50 c20 -28 71 -102
115 -165 109 -160 98 -150 158 -150 l51 0 0 265 0 265 -50 0 -50 0 0 -182 0
-182 -43 60 c-66 91 -138 194 -177 251 -34 51 -36 52 -82 53 l-48 0 0 -265z"/>
<path d="M3474 1046 c-51 -23 -84 -74 -84 -133 0 -75 39 -114 155 -158 49 -18
100 -43 113 -56 48 -47 2 -112 -79 -112 -35 0 -48 6 -71 32 -15 17 -28 38 -28
46 0 11 -13 15 -51 15 l-51 0 7 -37 c29 -160 280 -195 378 -53 11 15 17 44 17
77 0 50 -3 57 -42 96 -26 25 -61 48 -88 56 -132 42 -175 74 -163 120 6 22 59
51 95 51 30 0 76 -28 83 -50 5 -16 15 -20 56 -20 29 0 49 4 49 11 0 29 -34 77
-72 102 -36 23 -52 27 -118 27 -41 -1 -89 -7 -106 -14z"/>
<path d="M1240 780 l0 -270 50 0 50 0 0 178 1 177 22 -26 c12 -14 69 -94 125
-178 l104 -151 49 0 49 0 0 271 0 270 -47 -3 -48 -3 1 -178 c0 -97 -3 -176 -7
-175 -7 3 -152 205 -222 310 -31 46 -34 48 -79 48 l-48 0 0 -270z"/>
<path d="M1837 1043 c-4 -3 -7 -125 -7 -270 l0 -263 180 0 180 0 0 45 0 45
-125 0 -125 0 0 70 0 70 106 0 107 0 -7 31 c-3 17 -6 38 -6 45 0 11 -22 14
-100 14 l-101 0 3 68 3 67 118 0 117 0 0 43 0 42 -168 0 c-93 0 -172 -3 -175
-7z"/>
<path d="M2300 1037 c0 -14 42 -134 100 -287 16 -41 42 -111 58 -155 l30 -80
58 0 57 0 33 90 c18 50 49 137 69 195 20 58 45 128 55 155 38 101 39 97 -21
93 l-54 -3 -60 -180 c-67 -197 -81 -229 -89 -205 -3 8 -12 35 -20 60 -8 25
-34 97 -57 160 -22 63 -44 126 -48 140 -6 22 -14 25 -59 28 -39 2 -52 0 -52
-11z"/>
<path d="M2920 780 l0 -270 175 0 175 0 0 45 0 45 -125 0 -125 0 0 70 0 70
106 0 107 0 -7 31 c-3 17 -6 38 -6 45 0 11 -22 14 -100 14 l-100 0 0 64 c0 77
-5 75 140 73 l105 -1 0 40 0 39 -172 3 -173 2 0 -270z"/>
</g>
</svg>
